<?xml version="1.0" encoding="UTF-8" standalone="no"?>
<!DOCTYPE svg PUBLIC "-//W3C//DTD SVG 1.1//EN" "http://www.w3.org/Graphics/SVG/1.1/DTD/svg11.dtd">
<!-- Generated by Microsoft Visio, SVG Export logo-small.svg logo small -->
<svg xmlns="http://www.w3.org/2000/svg" xmlns:xlink="http://www.w3.org/1999/xlink" xmlns:ev="http://www.w3.org/2001/xml-events" width="4.72441in" height="4.72441in" viewBox="0 0 340.157 340.157" xml:space="preserve" color-interpolation-filters="sRGB" class="st3">
	<style type="text/css">
	<![CDATA[
		.st1 {fill:#464648;stroke:none;stroke-linecap:round;stroke-linejoin:round;stroke-width:0.75}
		.st2 {fill:#ac1c22;stroke:none;stroke-linecap:round;stroke-linejoin:round;stroke-width:0.75}
		.st3 {fill:none;fill-rule:evenodd;font-size:12px;overflow:visible;stroke-linecap:square;stroke-miterlimit:3}
	]]>
	</style>

	<g>
		
		<g id="group5-1" transform="translate(36.5731,-18)">
			
			<g id="shape2-2" transform="translate(47.497,-67.3705)">
				
				<path d="M180.54 238.6 L180.54 238.46 L136.42 282.44 C135.73 283.12 135.1 283.85 134.41 284.49 L134 284.94 L85.77         332.92 L78.48 340.16 L23.01 284.94 C-7.67 254.4 -7.67 204.92 23.01 174.42 C53.64 143.87 103.37 143.87         134 174.42 C141.66 182.06 147.4 190.9 151.28 200.27 L132.04 219.39 C130.08 209.1 125.07 199.27 117.04         191.26 C95.76 170.05 61.25 170.05 39.92 191.26 C18.63 212.47 18.63 246.84 39.96 268.05 L61.57 289.63         L78.48 306.47 L78.53 306.47 L178.35 207.01 L202.6 182.88 L219.51 199.73 L180.54 238.6 Z" class="st1"/>
			</g>
			<g id="shape3-4">
				
				<path d="M36.96 251.12 C-12.32 201.91 -12.32 122.11 36.96 72.91 C86.19 23.7 166.09 23.7 215.32 72.91 C222.8 80.37         229.09 88.52 234.28 97.12 L216.73 114.65 C212.04 105.73 205.98 97.35 198.41 89.79 C158.52 49.92 93.75         49.92 53.87 89.79 C13.94 129.67 13.94 194.35 53.87 234.23 L126.16 306.43 L150.32 282.26 L220.97 211.74         L237.84 228.63 L126.16 340.16 L36.96 251.12 Z" class="st2"/>
			</g>
			<g id="shape4-6" transform="translate(95.6778,-134.741)">
				
				<path d="M30.39 340.16 L51.86 318.54 C63.74 306.59 63.76 287.24 51.86 275.29 C39.99 263.32 20.77 263.32 8.92 275.29         C-2.97 287.24 -2.97 306.59 8.92 318.54 L30.39 340.16 Z" class="st2"/>
			</g>
		</g>
	</g>
</svg>
